<?xml version="1.0" encoding="utf-8"?>
<svg viewBox="0 0 50 50" width="50px" height="50px" xmlns="http://www.w3.org/2000/svg">
  <defs>
    <linearGradient id="color-2">
      <stop style="stop-color: #4ecca3;"/>
    </linearGradient>
  </defs>
  <path d="M 14.539 16.636 L 22.669 16.636 L 22.669 29.516 C 22.669 30.323 22.566 31.123 22.359 31.916 C 22.146 32.716 21.789 33.439 21.289 34.086 C 20.789 34.739 20.116 35.259 19.269 35.646 C 18.422 36.039 17.362 36.236 16.089 36.236 C 15.149 36.236 14.222 36.086 13.309 35.786 C 12.402 35.493 11.566 35.059 10.799 34.486 L 11.879 32.876 C 12.719 33.403 13.482 33.756 14.169 33.936 C 14.862 34.116 15.492 34.206 16.059 34.206 C 17.406 34.206 18.439 33.776 19.159 32.916 C 19.886 32.063 20.249 30.883 20.249 29.376 L 20.249 18.626 L 14.539 18.626 L 14.539 16.636 ZM 40.587 30.586 C 40.587 31.686 40.314 32.663 39.767 33.516 C 39.214 34.369 38.414 35.036 37.367 35.516 C 36.32 35.996 35.047 36.236 33.547 36.236 C 32.14 36.236 30.864 36.023 29.717 35.596 C 28.577 35.163 27.6 34.556 26.787 33.776 L 28.227 32.146 C 28.9 32.773 29.67 33.273 30.537 33.646 C 31.404 34.013 32.42 34.196 33.587 34.196 C 34.374 34.196 35.107 34.066 35.787 33.806 C 36.467 33.553 37.017 33.163 37.437 32.636 C 37.857 32.109 38.067 31.439 38.067 30.626 C 38.067 29.999 37.947 29.466 37.707 29.026 C 37.46 28.586 37.03 28.196 36.417 27.856 C 35.804 27.516 34.944 27.183 33.837 26.856 C 32.57 26.483 31.474 26.059 30.547 25.586 C 29.614 25.119 28.894 24.539 28.387 23.846 C 27.88 23.159 27.627 22.306 27.627 21.286 C 27.627 20.326 27.894 19.473 28.427 18.726 C 28.954 17.979 29.687 17.393 30.627 16.966 C 31.567 16.539 32.647 16.326 33.867 16.326 C 35.2 16.326 36.36 16.516 37.347 16.896 C 38.334 17.276 39.227 17.819 40.027 18.526 L 38.597 20.106 C 37.91 19.493 37.17 19.049 36.377 18.776 C 35.584 18.496 34.777 18.356 33.957 18.356 C 33.257 18.356 32.614 18.463 32.027 18.676 C 31.447 18.883 30.98 19.196 30.627 19.616 C 30.28 20.029 30.107 20.559 30.107 21.206 C 30.107 21.753 30.254 22.226 30.547 22.626 C 30.847 23.033 31.354 23.399 32.067 23.726 C 32.774 24.059 33.737 24.409 34.957 24.776 C 35.957 25.063 36.884 25.423 37.737 25.856 C 38.59 26.289 39.28 26.879 39.807 27.626 C 40.327 28.366 40.587 29.353 40.587 30.586 Z" transform="matrix(1.4876799583435059, 0, 0, 1.3616759777069092, -13.04044246673584, -11.16999626159668)" style="fill: url(#color-2); paint-order: stroke; white-space: pre;"/>
</svg>